{"title":"House of Cards 2013 S04E01 PROPER WEBRip X264-DEFLATE","uid":13744660,"size":221000654,"categoryP":"video","categoryS":"tv_shows","magnet":"?xt=urn:btih:847911cc931ed843412fb7ca3d560c340f643565&amp;dn=House+of+Cards+2013+S04E01+PROPER+WEBRip+X264-DEFLATE&amp;tr=udp%3A%2F%2Ftracker.leechers-paradise.org%3A6969&amp;tr=udp%3A%2F%2Fzer0day.ch%3A1337&amp;tr=udp%3A%2F%2Fopen.demonii.com%3A1337&amp;tr=udp%3A%2F%2Ftracker.coppersurfer.tk%3A6969&amp;tr=udp%3A%2F%2Fexodus.desync.com%3A6969","seeders":3,"leechers":4,"uploader":"Cybotage","files":3,"time":1457112378,"description":"Mediainfo :\r\n\r\nVideo\r\nID : 1\r\nFormat : AVC\r\nFormat/Info : Advanced Video Codec\r\nFormat profile :   \r\nFormat settings, CABAC : Yes\r\nFormat settings, ReFrames : 5 frames\r\nCodec ID : avc1\r\nCodec ID/Info : Advanced Video Coding\r\nDuration : 48mn 40s\r\nBit rate : 486 Kbps\r\nMaximum bit rate : 2 905 Kbps\r\nWidth : 720 pixels\r\nHeight : 360 pixels\r\nDisplay aspect ratio : 2.000\r\nFrame rate mode : Constant\r\nFrame rate : 23.976 (24000/1001) fps\r\nColor space : YUV\r\nChroma subsampling : 4:2:0\r\nBit depth : 8 bits\r\nScan type : Progressive\r\nBits/(Pixel*Frame) : 0.078\r\nStream size : 169 MiB (80%)\r\nTitle : X264-SD\r\nWriting library : x264 core 148 r2665 a01e339\r\nEncoding settings : cabac=1 / ref=5 / deblock=1:-2:-2 / analyse=0x3:0x113 / me=umh / subme=8 / psy=1 / psy_rd=1.05:0.00 / mixed_ref=1 / me_range=16 / chroma_me=1 / trellis=2 / 8x8dct=1 / cqm=0 / deadzone=21,11 / fast_pskip=0 / chroma_qp_offset=-2 / threads=11 / lookahead_threads=2 / sliced_threads=0 / nr=0 / decimate=1 / interlaced=0 / bluray_compat=0 / constrained_intra=0 / bframes=8 / b_pyramid=2 / b_adapt=2 / b_bias=0 / direct=3 / weightb=1 / open_gop=0 / weightp=2 / keyint=250 / keyint_min=23 / scenecut=40 / intra_refresh=0 / rc_lookahead=50 / rc=crf / mbtree=1 / crf=18.0 / qcomp=0.60 / qpmin=0 / qpmax=69 / qpstep=4 / ip_ratio=1.40 / aq=3:0.80\r\nEncoded date : UTC 2016-03-04 15:46:24\r\nTagged date : UTC 2016-03-04 15:46:26\r\nColor range : Limited\r\nMatrix coefficients : BT.709\r\n\r\nAudio\r\nID : 2\r\nFormat : AAC\r\nFormat/Info : Advanced Audio Codec\r\nFormat profile : LC\r\nCodec ID : 40\r\nDuration : 48mn 40s\r\nBit rate mode : Variable\r\nBit rate : 115 Kbps\r\nMaximum bit rate : 162 Kbps\r\nChannel(s) : 2 channels\r\nChannel positions : Front: L R\r\nSampling rate : 48.0 KHz\r\nFrame rate : 46.875 fps (1024 spf)\r\nCompression mode : Lossy\r\nStream size : 40.0 MiB (19%)\r\nTitle : AAC 2.0\r\nEncoded date : UTC 2016-03-04 12:37:13\r\nTagged date : UTC 2016-03-04 15:46:26\r\n\r\nText #1\r\nID : 3\r\nFormat : Timed Text\r\nCodec ID : tx3g\r\nDuration : 46mn 16s\r\nBit rate mode : Variable\r\nBit rate : 83 bps\r\nStream size : 28.2 KiB (0%)\r\nTitle : English\r\nForced : No\r\nEncoded date : UTC 2016-03-04 15:46:26\r\nTagged date : UTC 2016-03-04 15:46:26\r\n\r\nText #2\r\nID : 4\r\nFormat : Timed Text\r\nCodec ID : tx3g\r\nDuration : 46mn 18s\r\nBit rate mode : Variable\r\nBit rate : 89 bps\r\nStream size : 30.2 KiB (0%)\r\nTitle : English (SDH)\r\nForced : No\r\nEncoded date : UTC 2016-03-04 15:46:26\r\nTagged date : UTC 2016-03-04 15:46:26\r\n\r\nText #3\r\nID : 5\r\nFormat : Timed Text\r\nCodec ID : tx3g\r\nDuration : 46mn 16s\r\nBit rate mode : Variable\r\nBit rate : 64 bps\r\nStream size : 21.5 KiB (0%)\r\nTitle : Dutch\r\nForced : No\r\nEncoded date : UTC 2016-03-04 15:46:26\r\nTagged date : UTC 2016-03-04 15:46:26\r\n\r\nText #4\r\nID : 6\r\nFormat : Timed Text\r\nCodec ID : tx3g\r\nDuration : 48mn 39s\r\nBit rate mode : Variable\r\nBit rate : 62 bps\r\nStream size : 22.0 KiB (0%)\r\nTitle : French\r\nForced : No\r\nEncoded date : UTC 2016-03-04 15:46:26\r\nTagged date : UTC 2016-03-04 15:46:26\r\n\r\nText #5\r\nID : 7\r\nFormat : Timed Text\r\nCodec ID : tx3g\r\nDuration : 46mn 17s\r\nBit rate mode : Variable\r\nBit rate : 82 bps\r\nStream size : 27.9 KiB (0%)\r\nTitle : Italian\r\nForced : No\r\nEncoded date : UTC 2016-03-04 15:46:26\r\nTagged date : UTC 2016-03-04 15:46:26\r\n\r\nText #6\r\nID : 8\r\nFormat : Timed Text\r\nCodec ID : tx3g\r\nDuration : 46mn 17s\r\nBit rate mode : Variable\r\nBit rate : 80 bps\r\nStream size : 27.0 KiB (0%)\r\nTitle : Portuguese\r\nForced : No\r\nEncoded date : UTC 2016-03-04 15:46:26\r\nTagged date : UTC 2016-03-04 15:46:26","torrent":{"xt":"urn:btih:847911cc931ed843412fb7ca3d560c340f643565","amp;dn":"House+of+Cards+2013+S04E01+PROPER+WEBRip+X264-DEFLATE","amp;tr":["udp%3A%2F%2Ftracker.leechers-paradise.org%3A6969","udp%3A%2F%2Fzer0day.ch%3A1337","udp%3A%2F%2Fopen.demonii.com%3A1337","udp%3A%2F%2Ftracker.coppersurfer.tk%3A6969","udp%3A%2F%2Fexodus.desync.com%3A6969"],"infoHash":"847911cc931ed843412fb7ca3d560c340f643565","infoHashBuffer":{"type":"Buffer","data":[132,121,17,204,147,30,216,67,65,47,183,202,61,86,12,52,15,100,53,101]},"announce":[],"urlList":[]}}